<svg width="93" height="93" viewBox="0 0 93 93" fill="none" xmlns="http://www.w3.org/2000/svg">
<circle cx="46.5" cy="46.5" r="46.5" fill="#23A26D" fill-opacity="0.12"/>
<path d="M45.5001 24.4167C33.3322 24.4167 23.4167 34.3321 23.4167 46.5C23.4167 58.6679 33.3322 68.5833 45.5001 68.5833C57.668 68.5833 67.5834 58.6679 67.5834 46.5C67.5834 34.3321 57.668 24.4167 45.5001 24.4167ZM56.0559 41.4208L43.5347 53.9421C43.2255 54.2513 42.8059 54.4279 42.3642 54.4279C41.9226 54.4279 41.503 54.2513 41.1938 53.9421L34.9442 47.6925C34.3038 47.0521 34.3038 45.9921 34.9442 45.3517C35.5847 44.7113 36.6447 44.7113 37.2851 45.3517L42.3642 50.4308L53.7151 39.08C54.3555 38.4396 55.4155 38.4396 56.0559 39.08C56.6963 39.7204 56.6963 40.7583 56.0559 41.4208Z" fill="#23A26D"/>
</svg>
